<svg width="15" height="15" viewBox="0 0 15 15" fill="none" xmlns="http://www.w3.org/2000/svg">
<path fill-rule="evenodd" clip-rule="evenodd" d="M10.0223 0.0146859C10.0333 -0.000891705 10.0547 -0.00467748 10.0703 0.0062301L11.1354 0.751998C11.1509 0.762905 11.1547 0.784374 11.1438 0.799951L9.66143 2.91701C10.3821 3.14725 10.8731 3.3956 10.8731 3.3956C10.8731 3.3956 9.67298 5.45991 7.63746 5.45991C5.60194 5.45991 4.15552 3.53593 4.15552 3.53593C4.15552 3.53593 4.6684 3.20862 5.42865 2.9279L3.80267 0.990164C3.79046 0.975595 3.79236 0.953877 3.80692 0.941654L4.80293 0.105898C4.81752 0.0936744 4.83923 0.0955743 4.85144 0.110142L6.91019 2.56366C7.08647 2.54372 7.26606 2.53258 7.44729 2.53258C7.70777 2.53258 7.96793 2.55238 8.2219 2.58599L10.0223 0.0146859ZM10.4251 5.55768C10.9682 5.16973 11.7902 4.15717 11.7902 4.15717C11.7902 4.15717 13.8897 5.82094 13.8897 9.34875C13.8897 12.8765 10.26 14.9998 10.26 14.9998C10.26 14.9998 8.52574 13.2484 8.1 11.0282C7.67428 8.80808 8.72976 6.34286 8.72976 6.34286C8.72976 6.34286 9.88183 5.94562 10.4251 5.55768ZM4.57497 5.55768C4.03177 5.16973 3.20982 4.15717 3.20982 4.15717C3.20982 4.15717 1.11029 5.82094 1.11029 9.34875C1.11029 12.8765 4.74006 14.9998 4.74006 14.9998C4.74006 14.9998 6.47428 13.2484 6.90003 11.0282C7.32574 8.80808 6.27026 6.34286 6.27026 6.34286C6.27026 6.34286 5.11819 5.94562 4.57497 5.55768Z" fill="white" fill-opacity="0.64"/>
</svg>
