<svg width="15" height="15" viewBox="0 0 15 15" fill="none" xmlns="http://www.w3.org/2000/svg">
<g clip-path="url(#clip0_1_168)">
<path fill-rule="evenodd" clip-rule="evenodd" d="M8.22769 7.46722C8.32935 7.40522 8.4156 7.27532 8.48515 7.13095C9.40053 7.50507 10.0438 8.38913 10.0438 9.42012C10.0438 10.7897 8.90855 11.9001 7.50816 11.9001C6.9333 11.9001 6.40311 11.7129 5.97781 11.3976C5.8383 11.3316 5.72351 11.2681 5.62958 11.2162C5.48389 11.1356 5.38835 11.0828 5.32853 11.0911C5.15366 11.1152 5.20443 11.2761 5.25057 11.4222C5.28189 11.5215 5.3111 11.614 5.26589 11.6522C5.21861 11.6921 5.06544 11.5461 4.88647 11.3754C4.64284 11.1432 4.35139 10.8653 4.21396 10.9487C4.1053 11.0147 4.21079 11.1938 4.33994 11.4129L4.34952 11.4292C4.40407 11.5218 4.46729 11.6162 4.52497 11.7022C4.64225 11.8772 4.7367 12.0181 4.68945 12.042C4.63232 12.0708 4.23429 11.8022 3.89887 11.4292C3.76941 11.2852 3.64402 11.1292 3.52747 10.9842V10.9842C3.27239 10.6668 3.05987 10.4024 2.94057 10.4337C2.79706 10.4714 2.90562 10.7674 3.06514 11.0522C3.13973 11.1855 3.22747 11.3211 3.30344 11.4386V11.4386C3.4216 11.6212 3.51127 11.7598 3.47875 11.7769C3.43487 11.7998 3.0487 11.4233 2.78642 10.9487C2.63064 10.6669 2.49983 10.3554 2.39392 10.1032C2.27908 9.82975 2.19353 9.62604 2.13719 9.60554C1.94147 9.53432 1.94147 9.93337 2.01997 10.5093C2.03021 10.5845 2.04546 10.6633 2.06424 10.7435C2.82549 13.2066 5.164 15 7.93077 15C11.3151 15 14.0585 12.3168 14.0585 9.0068C14.0585 5.85645 11.5733 3.27384 8.41572 3.03205C8.4197 2.88364 8.49716 2.58935 8.49716 2.58935C8.49716 2.58935 9.05459 1.24064 9.08407 0.952438C9.086 0.933311 9.08831 0.912524 9.0908 0.890388C9.12552 0.578991 9.19012 0 8.69202 0C8.426 0 8.30231 0.19789 8.16083 0.424216V0.424219C8.10652 0.511104 8.04956 0.602183 7.98095 0.687861C7.48677 1.30499 6.6558 2.07565 6.18461 2.48622C5.1887 3.35402 4.21159 4.06723 3.6417 4.48318L3.64167 4.48321C3.38248 4.67238 3.20755 4.80009 3.15341 4.85285C2.74542 5.25059 1.28257 7.88924 1.28257 7.88924C1.28257 7.88924 0.809495 8.7358 0.977645 8.90751C1.14579 9.07919 1.55129 9.03984 1.55129 9.03984C1.55129 9.03984 6.99877 7.79013 7.48648 7.69157C7.61779 7.66503 7.71048 7.64971 7.78164 7.63796C7.97486 7.60606 8.00954 7.60031 8.22769 7.46722ZM4.37612 5.86125C4.08371 6.13919 3.59875 6.80262 3.59875 6.80262C3.59875 6.80262 4.50004 6.85813 4.99642 6.38631C5.49283 5.91445 5.3791 5.11034 5.3791 5.11034C5.3791 5.11034 4.6685 5.58331 4.37612 5.86125Z" fill="white" fill-opacity="0.64"/>
</g>
<defs>
<clipPath id="clip0_1_168">
<rect width="15" height="15" fill="white"/>
</clipPath>
</defs>
</svg>
