<svg width="15" height="15" viewBox="0 0 15 15" fill="none" xmlns="http://www.w3.org/2000/svg">
<g clip-path="url(#clip0_1_182)">
<path fill-rule="evenodd" clip-rule="evenodd" d="M5.23573 14C7.43309 14 9.3143 12.7787 10.0909 11.0475C10.1004 11.0264 6.97289 11.8603 7.07262 11.5655C7.11715 11.4339 9.03434 10.7335 10.4311 9.91662C11.2339 9.44708 11.6036 8.45312 11.6036 8.45312C11.6036 8.45312 10.2511 9.10981 9.56734 9.2764C8.18944 9.61214 6.97652 9.57599 6.97652 9.54101C6.97652 9.46536 8.99054 9.08269 11.7898 7.37687C13.1065 6.57452 13.4641 5.19247 13.4641 5.19247C13.4641 5.19247 12.0165 6.05474 11.1414 6.33941C9.06615 7.0145 7.17235 7.21794 7.17235 7.12659C7.17235 6.93101 8.83896 6.47271 10.606 5.61651C11.5247 5.17135 12.3204 4.58975 13.2425 3.94296C14.7512 2.88473 15 1 15 1C15 1 13.512 1.95977 12.7858 2.2785C9.78932 3.59368 7.14346 4.28356 5.23573 4.43292C2.35597 4.65839 3.05176e-05 6.66766 3.05176e-05 9.2764C3.05176e-05 11.8852 2.34413 14 5.23573 14Z" fill="white" fill-opacity="0.64"/>
</g>
<defs>
<clipPath id="clip0_1_182">
<rect width="15" height="15" fill="white"/>
</clipPath>
</defs>
</svg>
