<svg width="15" height="15" viewBox="0 0 15 15" fill="none" xmlns="http://www.w3.org/2000/svg">
<g clip-path="url(#clip0_1_173)">
<path fill-rule="evenodd" clip-rule="evenodd" d="M2.96285 12.8796C2.91136 12.8312 2.86044 12.7818 2.81012 12.7315C0.153342 10.0747 0.153342 5.76722 2.81012 3.11046C5.46688 0.453675 13.9324 0.27594 13.9324 0.27594C13.9324 0.27594 15.0879 10.0747 12.4312 12.7315C10.0716 15.091 6.41 15.355 3.75913 13.5234L5.89511 10.9022L9.30966 10.165L6.52238 9.88633L8.29373 8.08275L10.3101 7.64105L8.71567 7.16887L10.3101 4.29262L8.04219 6.83641L7.16642 5.60058L7.47471 7.64105L5.89511 9.42177L5.16289 7.16884V10.165L2.96285 12.8796Z" fill="white" fill-opacity="0.64"/>
</g>
<defs>
<clipPath id="clip0_1_173">
<rect width="15" height="15" fill="white"/>
</clipPath>
</defs>
</svg>
