<svg width="15" height="15" viewBox="0 0 15 15" fill="none" xmlns="http://www.w3.org/2000/svg">
<g clip-path="url(#clip0_1_174)">
<path fill-rule="evenodd" clip-rule="evenodd" d="M3.30369 12.8951C3.29962 12.8951 3.29678 12.8911 3.29813 12.8873L7.12767 2.06643C7.12852 2.06407 7.13074 2.0625 7.13323 2.0625H11.2214C11.2239 2.0625 11.2261 2.06409 11.2269 2.06645L14.9997 12.8873C15.001 12.8912 14.9982 12.8951 14.9941 12.8951H3.41877H3.30369ZM0.00595867 12.9375C0.00184557 12.9375 -0.00100201 12.9334 0.000440744 12.9295L2.85219 5.31609C2.85305 5.31378 2.85525 5.31226 2.85771 5.31226H5.33555C5.33965 5.31226 5.34249 5.31633 5.34109 5.32017L2.58353 12.9336C2.58268 12.9359 2.58047 12.9375 2.57799 12.9375H0.00595867Z" fill="white" fill-opacity="0.64"/>
</g>
<defs>
<clipPath id="clip0_1_174">
<rect width="15" height="15" fill="white"/>
</clipPath>
</defs>
</svg>
